mtllib jp_ya.mtl
v -0.000600 0.000000 -0.031500
v -0.000000 0.000400 -0.031500
v 0.000600 0.000000 -0.031500
v -0.000000 -0.000400 -0.031500
v -0.010500 0.000000 -0.018000
v -0.000000 0.002800 -0.018000
v 0.010500 0.000000 -0.018000
v -0.000000 -0.002800 -0.018000
v -0.013500 0.000000 -0.006000
v -0.000000 0.003400 -0.006000
v 0.013500 0.000000 -0.006000
v -0.000000 -0.003400 -0.006000
v -0.008000 0.000000 0.004000
v -0.000000 0.003000 0.004000
v 0.008000 0.000000 0.004000
v -0.000000 -0.003000 0.004000
v -0.004200 0.000000 0.012000
v -0.000000 0.004200 0.012000
v 0.004200 0.000000 0.012000
v -0.000000 -0.004200 0.012000
v -0.000000 0.000000 -0.032000
v -0.000600 0.000000 -0.031500
v -0.000000 0.000400 -0.031500
v 0.000600 0.000000 -0.031500
v -0.000000 -0.000400 -0.031500
v -0.004200 0.000000 0.011000
v -0.002970 0.002970 0.011000
v -0.000000 0.004200 0.011000
v 0.002970 0.002970 0.011000
v 0.004200 0.000000 0.011000
v 0.002970 -0.002970 0.011000
v 0.000000 -0.004200 0.011000
v -0.002970 -0.002970 0.011000
v -0.005000 0.000000 0.020000
v -0.003536 0.003536 0.020000
v -0.000000 0.005000 0.020000
v 0.003536 0.003536 0.020000
v 0.005000 0.000000 0.020000
v 0.003536 -0.003536 0.020000
v 0.000000 -0.005000 0.020000
v -0.003536 -0.003536 0.020000
v -0.004500 0.000000 0.019000
v -0.003182 0.003182 0.019000
v -0.000000 0.004500 0.019000
v 0.003182 0.003182 0.019000
v 0.004500 0.000000 0.019000
v 0.003182 -0.003182 0.019000
v 0.000000 -0.004500 0.019000
v -0.003182 -0.003182 0.019000
v -0.004500 0.000000 0.120222
v -0.003182 0.003182 0.120222
v -0.000000 0.004500 0.120222
v 0.003182 0.003182 0.120222
v 0.004500 0.000000 0.120222
v 0.003182 -0.003182 0.120222
v 0.000000 -0.004500 0.120222
v -0.003182 -0.003182 0.120222
v -0.004500 0.000000 0.221444
v -0.003182 0.003182 0.221444
v -0.000000 0.004500 0.221444
v 0.003182 0.003182 0.221444
v 0.004500 0.000000 0.221444
v 0.003182 -0.003182 0.221444
v 0.000000 -0.004500 0.221444
v -0.003182 -0.003182 0.221444
v -0.004500 0.000000 0.322667
v -0.003182 0.003182 0.322667
v -0.000000 0.004500 0.322667
v 0.003182 0.003182 0.322667
v 0.004500 0.000000 0.322667
v 0.003182 -0.003182 0.322667
v 0.000000 -0.004500 0.322667
v -0.003182 -0.003182 0.322667
v -0.004500 0.000000 0.423889
v -0.003182 0.003182 0.423889
v -0.000000 0.004500 0.423889
v 0.003182 0.003182 0.423889
v 0.004500 0.000000 0.423889
v 0.003182 -0.003182 0.423889
v 0.000000 -0.004500 0.423889
v -0.003182 -0.003182 0.423889
v -0.004500 0.000000 0.525111
v -0.003182 0.003182 0.525111
v -0.000000 0.004500 0.525111
v 0.003182 0.003182 0.525111
v 0.004500 0.000000 0.525111
v 0.003182 -0.003182 0.525111
v 0.000000 -0.004500 0.525111
v -0.003182 -0.003182 0.525111
v -0.004500 0.000000 0.626333
v -0.003182 0.003182 0.626333
v -0.000000 0.004500 0.626333
v 0.003182 0.003182 0.626333
v 0.004500 0.000000 0.626333
v 0.003182 -0.003182 0.626333
v 0.000000 -0.004500 0.626333
v -0.003182 -0.003182 0.626333
v -0.004500 0.000000 0.727556
v -0.003182 0.003182 0.727556
v -0.000000 0.004500 0.727556
v 0.003182 0.003182 0.727556
v 0.004500 0.000000 0.727556
v 0.003182 -0.003182 0.727556
v 0.000000 -0.004500 0.727556
v -0.003182 -0.003182 0.727556
v -0.004500 0.000000 0.828778
v -0.003182 0.003182 0.828778
v -0.000000 0.004500 0.828778
v 0.003182 0.003182 0.828778
v 0.004500 0.000000 0.828778
v 0.003182 -0.003182 0.828778
v 0.000000 -0.004500 0.828778
v -0.003182 -0.003182 0.828778
v -0.004500 0.000000 0.930000
v -0.003182 0.003182 0.930000
v -0.000000 0.004500 0.930000
v 0.003182 0.003182 0.930000
v 0.004500 0.000000 0.930000
v 0.003182 -0.003182 0.930000
v 0.000000 -0.004500 0.930000
v -0.003182 -0.003182 0.930000
v -0.004900 0.000000 0.929000
v -0.003465 0.003465 0.929000
v -0.000000 0.004900 0.929000
v 0.003465 0.003465 0.929000
v 0.004900 0.000000 0.929000
v 0.003465 -0.003465 0.929000
v 0.000000 -0.004900 0.929000
v -0.003465 -0.003465 0.929000
v -0.004600 0.000000 0.951000
v -0.003253 0.003253 0.951000
v -0.000000 0.004600 0.951000
v 0.003253 0.003253 0.951000
v 0.004600 0.000000 0.951000
v 0.003253 -0.003253 0.951000
v 0.000000 -0.004600 0.951000
v -0.003253 -0.003253 0.951000
v -0.003600 0.000000 0.955000
v -0.002546 0.002546 0.955000
v -0.000000 0.003600 0.955000
v 0.002546 0.002546 0.955000
v 0.003600 0.000000 0.955000
v 0.002546 -0.002546 0.955000
v 0.000000 -0.003600 0.955000
v -0.002546 -0.002546 0.955000
v -0.000000 0.000000 0.953500
v -0.003600 0.000000 0.955000
v -0.002546 0.002546 0.955000
v -0.000000 0.003600 0.955000
v 0.002546 0.002546 0.955000
v 0.003600 0.000000 0.955000
v 0.002546 -0.002546 0.955000
v 0.000000 -0.003600 0.955000
v -0.002546 -0.002546 0.955000
v -0.000000 0.004050 0.735000
v -0.000000 0.004050 0.760000
v -0.000000 0.014214 0.760000
v -0.000000 0.004850 0.735000
v -0.000000 0.004850 0.735000
v -0.000000 0.014214 0.760000
v -0.000000 0.004050 0.760000
v -0.000000 0.004050 0.735000
v -0.000000 0.004050 0.760000
v -0.000000 0.004050 0.785000
v -0.000000 0.017550 0.785000
v -0.000000 0.014214 0.760000
v -0.000000 0.014214 0.760000
v -0.000000 0.017550 0.785000
v -0.000000 0.004050 0.785000
v -0.000000 0.004050 0.760000
v -0.000000 0.004050 0.785000
v -0.000000 0.004050 0.810000
v -0.000000 0.017550 0.810000
v -0.000000 0.017550 0.785000
v -0.000000 0.017550 0.785000
v -0.000000 0.017550 0.810000
v -0.000000 0.004050 0.810000
v -0.000000 0.004050 0.785000
v -0.000000 0.004050 0.810000
v -0.000000 0.004050 0.835000
v -0.000000 0.016762 0.835000
v -0.000000 0.017550 0.810000
v -0.000000 0.017550 0.810000
v -0.000000 0.016762 0.835000
v -0.000000 0.004050 0.835000
v -0.000000 0.004050 0.810000
v -0.000000 0.004050 0.835000
v -0.000000 0.004050 0.860000
v -0.000000 0.014794 0.860000
v -0.000000 0.016762 0.835000
v -0.000000 0.016762 0.835000
v -0.000000 0.014794 0.860000
v -0.000000 0.004050 0.860000
v -0.000000 0.004050 0.835000
v -0.000000 0.004050 0.860000
v -0.000000 0.004050 0.885000
v -0.000000 0.012825 0.885000
v -0.000000 0.014794 0.860000
v -0.000000 0.014794 0.860000
v -0.000000 0.012825 0.885000
v -0.000000 0.004050 0.885000
v -0.000000 0.004050 0.860000
v 0.003507 -0.002025 0.735000
v 0.003507 -0.002025 0.760000
v 0.012310 -0.007107 0.760000
v 0.004200 -0.002425 0.735000
v 0.004200 -0.002425 0.735000
v 0.012310 -0.007107 0.760000
v 0.003507 -0.002025 0.760000
v 0.003507 -0.002025 0.735000
v 0.003507 -0.002025 0.760000
v 0.003507 -0.002025 0.785000
v 0.015199 -0.008775 0.785000
v 0.012310 -0.007107 0.760000
v 0.012310 -0.007107 0.760000
v 0.015199 -0.008775 0.785000
v 0.003507 -0.002025 0.785000
v 0.003507 -0.002025 0.760000
v 0.003507 -0.002025 0.785000
v 0.003507 -0.002025 0.810000
v 0.015199 -0.008775 0.810000
v 0.015199 -0.008775 0.785000
v 0.015199 -0.008775 0.785000
v 0.015199 -0.008775 0.810000
v 0.003507 -0.002025 0.810000
v 0.003507 -0.002025 0.785000
v 0.003507 -0.002025 0.810000
v 0.003507 -0.002025 0.835000
v 0.014517 -0.008381 0.835000
v 0.015199 -0.008775 0.810000
v 0.015199 -0.008775 0.810000
v 0.014517 -0.008381 0.835000
v 0.003507 -0.002025 0.835000
v 0.003507 -0.002025 0.810000
v 0.003507 -0.002025 0.835000
v 0.003507 -0.002025 0.860000
v 0.012812 -0.007397 0.860000
v 0.014517 -0.008381 0.835000
v 0.014517 -0.008381 0.835000
v 0.012812 -0.007397 0.860000
v 0.003507 -0.002025 0.860000
v 0.003507 -0.002025 0.835000
v 0.003507 -0.002025 0.860000
v 0.003507 -0.002025 0.885000
v 0.011107 -0.006413 0.885000
v 0.012812 -0.007397 0.860000
v 0.012812 -0.007397 0.860000
v 0.011107 -0.006413 0.885000
v 0.003507 -0.002025 0.885000
v 0.003507 -0.002025 0.860000
v -0.003507 -0.002025 0.735000
v -0.003507 -0.002025 0.760000
v -0.012310 -0.007107 0.760000
v -0.004200 -0.002425 0.735000
v -0.004200 -0.002425 0.735000
v -0.012310 -0.007107 0.760000
v -0.003507 -0.002025 0.760000
v -0.003507 -0.002025 0.735000
v -0.003507 -0.002025 0.760000
v -0.003507 -0.002025 0.785000
v -0.015199 -0.008775 0.785000
v -0.012310 -0.007107 0.760000
v -0.012310 -0.007107 0.760000
v -0.015199 -0.008775 0.785000
v -0.003507 -0.002025 0.785000
v -0.003507 -0.002025 0.760000
v -0.003507 -0.002025 0.785000
v -0.003507 -0.002025 0.810000
v -0.015199 -0.008775 0.810000
v -0.015199 -0.008775 0.785000
v -0.015199 -0.008775 0.785000
v -0.015199 -0.008775 0.810000
v -0.003507 -0.002025 0.810000
v -0.003507 -0.002025 0.785000
v -0.003507 -0.002025 0.810000
v -0.003507 -0.002025 0.835000
v -0.014517 -0.008381 0.835000
v -0.015199 -0.008775 0.810000
v -0.015199 -0.008775 0.810000
v -0.014517 -0.008381 0.835000
v -0.003507 -0.002025 0.835000
v -0.003507 -0.002025 0.810000
v -0.003507 -0.002025 0.835000
v -0.003507 -0.002025 0.860000
v -0.012812 -0.007397 0.860000
v -0.014517 -0.008381 0.835000
v -0.014517 -0.008381 0.835000
v -0.012812 -0.007397 0.860000
v -0.003507 -0.002025 0.860000
v -0.003507 -0.002025 0.835000
v -0.003507 -0.002025 0.860000
v -0.003507 -0.002025 0.885000
v -0.011107 -0.006413 0.885000
v -0.012812 -0.007397 0.860000
v -0.012812 -0.007397 0.860000
v -0.011107 -0.006413 0.885000
v -0.003507 -0.002025 0.885000
v -0.003507 -0.002025 0.860000
vt 0.020000 0.851200
vt 0.135000 0.851200
vt 0.135000 0.975400
vt 0.020000 0.975400
vt 0.135000 0.851200
vt 0.250000 0.851200
vt 0.250000 0.975400
vt 0.135000 0.975400
vt 0.250000 0.851200
vt 0.365000 0.851200
vt 0.365000 0.975400
vt 0.250000 0.975400
vt 0.365000 0.851200
vt 0.480000 0.851200
vt 0.480000 0.975400
vt 0.365000 0.975400
vt 0.020000 0.740800
vt 0.135000 0.740800
vt 0.135000 0.851200
vt 0.020000 0.851200
vt 0.135000 0.740800
vt 0.250000 0.740800
vt 0.250000 0.851200
vt 0.135000 0.851200
vt 0.250000 0.740800
vt 0.365000 0.740800
vt 0.365000 0.851200
vt 0.250000 0.851200
vt 0.365000 0.740800
vt 0.480000 0.740800
vt 0.480000 0.851200
vt 0.365000 0.851200
vt 0.020000 0.648800
vt 0.135000 0.648800
vt 0.135000 0.740800
vt 0.020000 0.740800
vt 0.135000 0.648800
vt 0.250000 0.648800
vt 0.250000 0.740800
vt 0.135000 0.740800
vt 0.250000 0.648800
vt 0.365000 0.648800
vt 0.365000 0.740800
vt 0.250000 0.740800
vt 0.365000 0.648800
vt 0.480000 0.648800
vt 0.480000 0.740800
vt 0.365000 0.740800
vt 0.020000 0.575200
vt 0.135000 0.575200
vt 0.135000 0.648800
vt 0.020000 0.648800
vt 0.135000 0.575200
vt 0.250000 0.575200
vt 0.250000 0.648800
vt 0.135000 0.648800
vt 0.250000 0.575200
vt 0.365000 0.575200
vt 0.365000 0.648800
vt 0.250000 0.648800
vt 0.365000 0.575200
vt 0.480000 0.575200
vt 0.480000 0.648800
vt 0.365000 0.648800
vt 0.250000 0.980000
vt 0.020000 0.980000
vt 0.135000 0.980000
vt 0.250000 0.980000
vt 0.135000 0.980000
vt 0.250000 0.980000
vt 0.250000 0.980000
vt 0.250000 0.980000
vt 0.365000 0.980000
vt 0.250000 0.980000
vt 0.365000 0.980000
vt 0.020000 0.980000
vt 0.020000 0.750000
vt 0.077500 0.750000
vt 0.077500 0.842000
vt 0.020000 0.842000
vt 0.077500 0.750000
vt 0.135000 0.750000
vt 0.135000 0.842000
vt 0.077500 0.842000
vt 0.135000 0.750000
vt 0.192500 0.750000
vt 0.192500 0.842000
vt 0.135000 0.842000
vt 0.192500 0.750000
vt 0.250000 0.750000
vt 0.250000 0.842000
vt 0.192500 0.842000
vt 0.250000 0.750000
vt 0.307500 0.750000
vt 0.307500 0.842000
vt 0.250000 0.842000
vt 0.307500 0.750000
vt 0.365000 0.750000
vt 0.365000 0.842000
vt 0.307500 0.842000
vt 0.365000 0.750000
vt 0.422500 0.750000
vt 0.422500 0.842000
vt 0.365000 0.842000
vt 0.422500 0.750000
vt 0.480000 0.750000
vt 0.480000 0.842000
vt 0.422500 0.842000
vt 0.000000 0.845773
vt 0.062500 0.845773
vt 0.062500 0.948328
vt 0.000000 0.948328
vt 0.062500 0.845773
vt 0.125000 0.845773
vt 0.125000 0.948328
vt 0.062500 0.948328
vt 0.125000 0.845773
vt 0.187500 0.845773
vt 0.187500 0.948328
vt 0.125000 0.948328
vt 0.187500 0.845773
vt 0.250000 0.845773
vt 0.250000 0.948328
vt 0.187500 0.948328
vt 0.250000 0.845773
vt 0.312500 0.845773
vt 0.312500 0.948328
vt 0.250000 0.948328
vt 0.312500 0.845773
vt 0.375000 0.845773
vt 0.375000 0.948328
vt 0.312500 0.948328
vt 0.375000 0.845773
vt 0.437500 0.845773
vt 0.437500 0.948328
vt 0.375000 0.948328
vt 0.437500 0.845773
vt 0.500000 0.845773
vt 0.500000 0.948328
vt 0.437500 0.948328
vt 0.000000 0.743217
vt 0.062500 0.743217
vt 0.062500 0.845773
vt 0.000000 0.845773
vt 0.062500 0.743217
vt 0.125000 0.743217
vt 0.125000 0.845773
vt 0.062500 0.845773
vt 0.125000 0.743217
vt 0.187500 0.743217
vt 0.187500 0.845773
vt 0.125000 0.845773
vt 0.187500 0.743217
vt 0.250000 0.743217
vt 0.250000 0.845773
vt 0.187500 0.845773
vt 0.250000 0.743217
vt 0.312500 0.743217
vt 0.312500 0.845773
vt 0.250000 0.845773
vt 0.312500 0.743217
vt 0.375000 0.743217
vt 0.375000 0.845773
vt 0.312500 0.845773
vt 0.375000 0.743217
vt 0.437500 0.743217
vt 0.437500 0.845773
vt 0.375000 0.845773
vt 0.437500 0.743217
vt 0.500000 0.743217
vt 0.500000 0.845773
vt 0.437500 0.845773
vt 0.000000 0.640662
vt 0.062500 0.640662
vt 0.062500 0.743217
vt 0.000000 0.743217
vt 0.062500 0.640662
vt 0.125000 0.640662
vt 0.125000 0.743217
vt 0.062500 0.743217
vt 0.125000 0.640662
vt 0.187500 0.640662
vt 0.187500 0.743217
vt 0.125000 0.743217
vt 0.187500 0.640662
vt 0.250000 0.640662
vt 0.250000 0.743217
vt 0.187500 0.743217
vt 0.250000 0.640662
vt 0.312500 0.640662
vt 0.312500 0.743217
vt 0.250000 0.743217
vt 0.312500 0.640662
vt 0.375000 0.640662
vt 0.375000 0.743217
vt 0.312500 0.743217
vt 0.375000 0.640662
vt 0.437500 0.640662
vt 0.437500 0.743217
vt 0.375000 0.743217
vt 0.437500 0.640662
vt 0.500000 0.640662
vt 0.500000 0.743217
vt 0.437500 0.743217
vt 0.000000 0.538106
vt 0.062500 0.538106
vt 0.062500 0.640662
vt 0.000000 0.640662
vt 0.062500 0.538106
vt 0.125000 0.538106
vt 0.125000 0.640662
vt 0.062500 0.640662
vt 0.125000 0.538106
vt 0.187500 0.538106
vt 0.187500 0.640662
vt 0.125000 0.640662
vt 0.187500 0.538106
vt 0.250000 0.538106
vt 0.250000 0.640662
vt 0.187500 0.640662
vt 0.250000 0.538106
vt 0.312500 0.538106
vt 0.312500 0.640662
vt 0.250000 0.640662
vt 0.312500 0.538106
vt 0.375000 0.538106
vt 0.375000 0.640662
vt 0.312500 0.640662
vt 0.375000 0.538106
vt 0.437500 0.538106
vt 0.437500 0.640662
vt 0.375000 0.640662
vt 0.437500 0.538106
vt 0.500000 0.538106
vt 0.500000 0.640662
vt 0.437500 0.640662
vt 0.000000 0.435551
vt 0.062500 0.435551
vt 0.062500 0.538106
vt 0.000000 0.538106
vt 0.062500 0.435551
vt 0.125000 0.435551
vt 0.125000 0.538106
vt 0.062500 0.538106
vt 0.125000 0.435551
vt 0.187500 0.435551
vt 0.187500 0.538106
vt 0.125000 0.538106
vt 0.187500 0.435551
vt 0.250000 0.435551
vt 0.250000 0.538106
vt 0.187500 0.538106
vt 0.250000 0.435551
vt 0.312500 0.435551
vt 0.312500 0.538106
vt 0.250000 0.538106
vt 0.312500 0.435551
vt 0.375000 0.435551
vt 0.375000 0.538106
vt 0.312500 0.538106
vt 0.375000 0.435551
vt 0.437500 0.435551
vt 0.437500 0.538106
vt 0.375000 0.538106
vt 0.437500 0.435551
vt 0.500000 0.435551
vt 0.500000 0.538106
vt 0.437500 0.538106
vt 0.000000 0.332996
vt 0.062500 0.332996
vt 0.062500 0.435551
vt 0.000000 0.435551
vt 0.062500 0.332996
vt 0.125000 0.332996
vt 0.125000 0.435551
vt 0.062500 0.435551
vt 0.125000 0.332996
vt 0.187500 0.332996
vt 0.187500 0.435551
vt 0.125000 0.435551
vt 0.187500 0.332996
vt 0.250000 0.332996
vt 0.250000 0.435551
vt 0.187500 0.435551
vt 0.250000 0.332996
vt 0.312500 0.332996
vt 0.312500 0.435551
vt 0.250000 0.435551
vt 0.312500 0.332996
vt 0.375000 0.332996
vt 0.375000 0.435551
vt 0.312500 0.435551
vt 0.375000 0.332996
vt 0.437500 0.332996
vt 0.437500 0.435551
vt 0.375000 0.435551
vt 0.437500 0.332996
vt 0.500000 0.332996
vt 0.500000 0.435551
vt 0.437500 0.435551
vt 0.000000 0.230440
vt 0.062500 0.230440
vt 0.062500 0.332996
vt 0.000000 0.332996
vt 0.062500 0.230440
vt 0.125000 0.230440
vt 0.125000 0.332996
vt 0.062500 0.332996
vt 0.125000 0.230440
vt 0.187500 0.230440
vt 0.187500 0.332996
vt 0.125000 0.332996
vt 0.187500 0.230440
vt 0.250000 0.230440
vt 0.250000 0.332996
vt 0.187500 0.332996
vt 0.250000 0.230440
vt 0.312500 0.230440
vt 0.312500 0.332996
vt 0.250000 0.332996
vt 0.312500 0.230440
vt 0.375000 0.230440
vt 0.375000 0.332996
vt 0.312500 0.332996
vt 0.375000 0.230440
vt 0.437500 0.230440
vt 0.437500 0.332996
vt 0.375000 0.332996
vt 0.437500 0.230440
vt 0.500000 0.230440
vt 0.500000 0.332996
vt 0.437500 0.332996
vt 0.000000 0.127885
vt 0.062500 0.127885
vt 0.062500 0.230440
vt 0.000000 0.230440
vt 0.062500 0.127885
vt 0.125000 0.127885
vt 0.125000 0.230440
vt 0.062500 0.230440
vt 0.125000 0.127885
vt 0.187500 0.127885
vt 0.187500 0.230440
vt 0.125000 0.230440
vt 0.187500 0.127885
vt 0.250000 0.127885
vt 0.250000 0.230440
vt 0.187500 0.230440
vt 0.250000 0.127885
vt 0.312500 0.127885
vt 0.312500 0.230440
vt 0.250000 0.230440
vt 0.312500 0.127885
vt 0.375000 0.127885
vt 0.375000 0.230440
vt 0.312500 0.230440
vt 0.375000 0.127885
vt 0.437500 0.127885
vt 0.437500 0.230440
vt 0.375000 0.230440
vt 0.437500 0.127885
vt 0.500000 0.127885
vt 0.500000 0.230440
vt 0.437500 0.230440
vt 0.000000 0.025329
vt 0.062500 0.025329
vt 0.062500 0.127885
vt 0.000000 0.127885
vt 0.062500 0.025329
vt 0.125000 0.025329
vt 0.125000 0.127885
vt 0.062500 0.127885
vt 0.125000 0.025329
vt 0.187500 0.025329
vt 0.187500 0.127885
vt 0.125000 0.127885
vt 0.187500 0.025329
vt 0.250000 0.025329
vt 0.250000 0.127885
vt 0.187500 0.127885
vt 0.250000 0.025329
vt 0.312500 0.025329
vt 0.312500 0.127885
vt 0.250000 0.127885
vt 0.312500 0.025329
vt 0.375000 0.025329
vt 0.375000 0.127885
vt 0.312500 0.127885
vt 0.375000 0.025329
vt 0.437500 0.025329
vt 0.437500 0.127885
vt 0.375000 0.127885
vt 0.437500 0.025329
vt 0.500000 0.025329
vt 0.500000 0.127885
vt 0.437500 0.127885
vt 0.520000 0.158000
vt 0.577500 0.158000
vt 0.577500 0.480000
vt 0.520000 0.480000
vt 0.577500 0.158000
vt 0.635000 0.158000
vt 0.635000 0.480000
vt 0.577500 0.480000
vt 0.635000 0.158000
vt 0.692500 0.158000
vt 0.692500 0.480000
vt 0.635000 0.480000
vt 0.692500 0.158000
vt 0.750000 0.158000
vt 0.750000 0.480000
vt 0.692500 0.480000
vt 0.750000 0.158000
vt 0.807500 0.158000
vt 0.807500 0.480000
vt 0.750000 0.480000
vt 0.807500 0.158000
vt 0.865000 0.158000
vt 0.865000 0.480000
vt 0.807500 0.480000
vt 0.865000 0.158000
vt 0.922500 0.158000
vt 0.922500 0.480000
vt 0.865000 0.480000
vt 0.922500 0.158000
vt 0.980000 0.158000
vt 0.980000 0.480000
vt 0.922500 0.480000
vt 0.520000 0.020000
vt 0.577500 0.020000
vt 0.577500 0.158000
vt 0.520000 0.158000
vt 0.577500 0.020000
vt 0.635000 0.020000
vt 0.635000 0.158000
vt 0.577500 0.158000
vt 0.635000 0.020000
vt 0.692500 0.020000
vt 0.692500 0.158000
vt 0.635000 0.158000
vt 0.692500 0.020000
vt 0.750000 0.020000
vt 0.750000 0.158000
vt 0.692500 0.158000
vt 0.750000 0.020000
vt 0.807500 0.020000
vt 0.807500 0.158000
vt 0.750000 0.158000
vt 0.807500 0.020000
vt 0.865000 0.020000
vt 0.865000 0.158000
vt 0.807500 0.158000
vt 0.865000 0.020000
vt 0.922500 0.020000
vt 0.922500 0.158000
vt 0.865000 0.158000
vt 0.922500 0.020000
vt 0.980000 0.020000
vt 0.980000 0.158000
vt 0.922500 0.158000
vt 0.750000 0.250000
vt 0.750000 0.250000
vt 0.750000 0.250000
vt 0.750000 0.250000
vt 0.750000 0.250000
vt 0.750000 0.250000
vt 0.750000 0.250000
vt 0.750000 0.250000
vt 0.750000 0.250000
vt 0.750000 0.250000
vt 0.750000 0.250000
vt 0.750000 0.250000
vt 0.750000 0.250000
vt 0.750000 0.250000
vt 0.750000 0.250000
vt 0.750000 0.250000
vt 0.750000 0.250000
vt 0.750000 0.250000
vt 0.750000 0.250000
vt 0.750000 0.250000
vt 0.750000 0.250000
vt 0.750000 0.250000
vt 0.750000 0.250000
vt 0.750000 0.250000
vt 0.990000 1.000000
vt 0.990000 0.833333
vt 0.500000 0.833333
vt 0.500000 1.000000
vt 0.500000 1.000000
vt 0.500000 0.833333
vt 0.990000 0.833333
vt 0.990000 1.000000
vt 0.990000 0.833333
vt 0.990000 0.666667
vt 0.500000 0.666667
vt 0.500000 0.833333
vt 0.500000 0.833333
vt 0.500000 0.666667
vt 0.990000 0.666667
vt 0.990000 0.833333
vt 0.990000 0.666667
vt 0.990000 0.500000
vt 0.500000 0.500000
vt 0.500000 0.666667
vt 0.500000 0.666667
vt 0.500000 0.500000
vt 0.990000 0.500000
vt 0.990000 0.666667
vt 0.990000 0.500000
vt 0.990000 0.333333
vt 0.500000 0.333333
vt 0.500000 0.500000
vt 0.500000 0.500000
vt 0.500000 0.333333
vt 0.990000 0.333333
vt 0.990000 0.500000
vt 0.990000 0.333333
vt 0.990000 0.166667
vt 0.500000 0.166667
vt 0.500000 0.333333
vt 0.500000 0.333333
vt 0.500000 0.166667
vt 0.990000 0.166667
vt 0.990000 0.333333
vt 0.990000 0.166667
vt 0.990000 0.000000
vt 0.500000 0.000000
vt 0.500000 0.166667
vt 0.500000 0.166667
vt 0.500000 0.000000
vt 0.990000 0.000000
vt 0.990000 0.166667
vt 0.990000 1.000000
vt 0.990000 0.833333
vt 0.500000 0.833333
vt 0.500000 1.000000
vt 0.500000 1.000000
vt 0.500000 0.833333
vt 0.990000 0.833333
vt 0.990000 1.000000
vt 0.990000 0.833333
vt 0.990000 0.666667
vt 0.500000 0.666667
vt 0.500000 0.833333
vt 0.500000 0.833333
vt 0.500000 0.666667
vt 0.990000 0.666667
vt 0.990000 0.833333
vt 0.990000 0.666667
vt 0.990000 0.500000
vt 0.500000 0.500000
vt 0.500000 0.666667
vt 0.500000 0.666667
vt 0.500000 0.500000
vt 0.990000 0.500000
vt 0.990000 0.666667
vt 0.990000 0.500000
vt 0.990000 0.333333
vt 0.500000 0.333333
vt 0.500000 0.500000
vt 0.500000 0.500000
vt 0.500000 0.333333
vt 0.990000 0.333333
vt 0.990000 0.500000
vt 0.990000 0.333333
vt 0.990000 0.166667
vt 0.500000 0.166667
vt 0.500000 0.333333
vt 0.500000 0.333333
vt 0.500000 0.166667
vt 0.990000 0.166667
vt 0.990000 0.333333
vt 0.990000 0.166667
vt 0.990000 0.000000
vt 0.500000 0.000000
vt 0.500000 0.166667
vt 0.500000 0.166667
vt 0.500000 0.000000
vt 0.990000 0.000000
vt 0.990000 0.166667
vt 0.990000 1.000000
vt 0.990000 0.833333
vt 0.500000 0.833333
vt 0.500000 1.000000
vt 0.500000 1.000000
vt 0.500000 0.833333
vt 0.990000 0.833333
vt 0.990000 1.000000
vt 0.990000 0.833333
vt 0.990000 0.666667
vt 0.500000 0.666667
vt 0.500000 0.833333
vt 0.500000 0.833333
vt 0.500000 0.666667
vt 0.990000 0.666667
vt 0.990000 0.833333
vt 0.990000 0.666667
vt 0.990000 0.500000
vt 0.500000 0.500000
vt 0.500000 0.666667
vt 0.500000 0.666667
vt 0.500000 0.500000
vt 0.990000 0.500000
vt 0.990000 0.666667
vt 0.990000 0.500000
vt 0.990000 0.333333
vt 0.500000 0.333333
vt 0.500000 0.500000
vt 0.500000 0.500000
vt 0.500000 0.333333
vt 0.990000 0.333333
vt 0.990000 0.500000
vt 0.990000 0.333333
vt 0.990000 0.166667
vt 0.500000 0.166667
vt 0.500000 0.333333
vt 0.500000 0.333333
vt 0.500000 0.166667
vt 0.990000 0.166667
vt 0.990000 0.333333
vt 0.990000 0.166667
vt 0.990000 0.000000
vt 0.500000 0.000000
vt 0.500000 0.166667
vt 0.500000 0.166667
vt 0.500000 0.000000
vt 0.990000 0.000000
vt 0.990000 0.166667
vn -0.261586 0.957710 -0.119852
vn -0.261586 0.957710 -0.119852
vn -0.272288 0.944499 -0.183794
vn -0.272288 0.944499 -0.183794
vn 0.261586 0.957710 -0.119852
vn 0.261586 0.957710 -0.119852
vn 0.272288 0.944499 -0.183794
vn 0.272288 0.944499 -0.183794
vn 0.261586 -0.957710 -0.119852
vn 0.261586 -0.957710 -0.119852
vn 0.272288 -0.944499 -0.183794
vn 0.272288 -0.944499 -0.183794
vn -0.261586 -0.957710 -0.119852
vn -0.261586 -0.957710 -0.119852
vn -0.272288 -0.944499 -0.183794
vn -0.272288 -0.944499 -0.183794
vn -0.267670 0.963283 0.020954
vn -0.267670 0.963283 0.020954
vn -0.261586 0.957710 -0.119852
vn -0.261586 0.957710 -0.119852
vn 0.267670 0.963283 0.020954
vn 0.267670 0.963283 0.020954
vn 0.261586 0.957710 -0.119852
vn 0.261586 0.957710 -0.119852
vn 0.267670 -0.963283 0.020954
vn 0.267670 -0.963283 0.020954
vn 0.261586 -0.957710 -0.119852
vn 0.261586 -0.957710 -0.119852
vn -0.267670 -0.963283 0.020954
vn -0.267670 -0.963283 0.020954
vn -0.261586 -0.957710 -0.119852
vn -0.261586 -0.957710 -0.119852
vn -0.398730 0.913814 0.077184
vn -0.398730 0.913814 0.077184
vn -0.267670 0.963283 0.020954
vn -0.267670 0.963283 0.020954
vn 0.398730 0.913814 0.077184
vn 0.398730 0.913814 0.077184
vn 0.267670 0.963283 0.020954
vn 0.267670 0.963283 0.020954
vn 0.398730 -0.913814 0.077184
vn 0.398730 -0.913814 0.077184
vn 0.267670 -0.963283 0.020954
vn 0.267670 -0.963283 0.020954
vn -0.398730 -0.913814 0.077184
vn -0.398730 -0.913814 0.077184
vn -0.267670 -0.963283 0.020954
vn -0.267670 -0.963283 0.020954
vn -0.507455 0.859855 0.056032
vn -0.507455 0.859855 0.056032
vn -0.398730 0.913814 0.077184
vn -0.398730 0.913814 0.077184
vn 0.507455 0.859855 0.056032
vn 0.507455 0.859855 0.056032
vn 0.398730 0.913814 0.077184
vn 0.398730 0.913814 0.077184
vn 0.507455 -0.859855 0.056032
vn 0.507455 -0.859855 0.056032
vn 0.398730 -0.913814 0.077184
vn 0.398730 -0.913814 0.077184
vn -0.507455 -0.859855 0.056032
vn -0.507455 -0.859855 0.056032
vn -0.398730 -0.913814 0.077184
vn -0.398730 -0.913814 0.077184
vn -0.000000 0.000000 -1.000000
vn -0.000000 0.000000 -1.000000
vn -0.000000 0.000000 -1.000000
vn -0.000000 0.000000 -1.000000
vn -0.000000 0.000000 -1.000000
vn -0.000000 0.000000 -1.000000
vn -0.000000 0.000000 -1.000000
vn -0.000000 0.000000 -1.000000
vn -0.000000 0.000000 -1.000000
vn -0.000000 0.000000 -1.000000
vn -0.000000 0.000000 -1.000000
vn -0.000000 0.000000 -1.000000
vn -0.996073 -0.000000 -0.088540
vn -0.704330 0.704330 -0.088540
vn -0.704330 0.704330 -0.088540
vn -0.996073 -0.000000 -0.088540
vn -0.704330 0.704330 -0.088540
vn -0.000000 0.996073 -0.088540
vn -0.000000 0.996073 -0.088540
vn -0.704330 0.704330 -0.088540
vn -0.000000 0.996073 -0.088540
vn 0.704330 0.704330 -0.088540
vn 0.704330 0.704330 -0.088540
vn -0.000000 0.996073 -0.088540
vn 0.704330 0.704330 -0.088540
vn 0.996073 0.000000 -0.088540
vn 0.996073 0.000000 -0.088540
vn 0.704330 0.704330 -0.088540
vn 0.996073 0.000000 -0.088540
vn 0.704330 -0.704330 -0.088540
vn 0.704330 -0.704330 -0.088540
vn 0.996073 0.000000 -0.088540
vn 0.704330 -0.704330 -0.088540
vn 0.000000 -0.996073 -0.088540
vn 0.000000 -0.996073 -0.088540
vn 0.704330 -0.704330 -0.088540
vn 0.000000 -0.996073 -0.088540
vn -0.704330 -0.704330 -0.088540
vn -0.704330 -0.704330 -0.088540
vn 0.000000 -0.996073 -0.088540
vn -0.704330 -0.704330 -0.088540
vn -0.996073 -0.000000 -0.088540
vn -0.996073 -0.000000 -0.088540
vn -0.704330 -0.704330 -0.088540
vn -1.000000 -0.000000 0.000000
vn -0.707107 0.707107 0.000000
vn -0.707107 0.707107 0.000000
vn -1.000000 -0.000000 0.000000
vn -0.707107 0.707107 0.000000
vn -0.000000 1.000000 0.000000
vn -0.000000 1.000000 0.000000
vn -0.707107 0.707107 0.000000
vn -0.000000 1.000000 0.000000
vn 0.707107 0.707107 0.000000
vn 0.707107 0.707107 0.000000
vn -0.000000 1.000000 0.000000
vn 0.707107 0.707107 0.000000
vn 1.000000 0.000000 0.000000
vn 1.000000 0.000000 0.000000
vn 0.707107 0.707107 0.000000
vn 1.000000 0.000000 0.000000
vn 0.707107 -0.707107 0.000000
vn 0.707107 -0.707107 0.000000
vn 1.000000 0.000000 0.000000
vn 0.707107 -0.707107 0.000000
vn 0.000000 -1.000000 0.000000
vn 0.000000 -1.000000 0.000000
vn 0.707107 -0.707107 0.000000
vn 0.000000 -1.000000 0.000000
vn -0.707107 -0.707107 0.000000
vn -0.707107 -0.707107 0.000000
vn 0.000000 -1.000000 0.000000
vn -0.707107 -0.707107 0.000000
vn -1.000000 -0.000000 0.000000
vn -1.000000 -0.000000 0.000000
vn -0.707107 -0.707107 0.000000
vn -1.000000 -0.000000 0.000000
vn -0.707107 0.707107 0.000000
vn -0.707107 0.707107 0.000000
vn -1.000000 -0.000000 0.000000
vn -0.707107 0.707107 0.000000
vn -0.000000 1.000000 0.000000
vn -0.000000 1.000000 0.000000
vn -0.707107 0.707107 0.000000
vn -0.000000 1.000000 0.000000
vn 0.707107 0.707107 0.000000
vn 0.707107 0.707107 0.000000
vn -0.000000 1.000000 0.000000
vn 0.707107 0.707107 0.000000
vn 1.000000 0.000000 0.000000
vn 1.000000 0.000000 0.000000
vn 0.707107 0.707107 0.000000
vn 1.000000 0.000000 0.000000
vn 0.707107 -0.707107 0.000000
vn 0.707107 -0.707107 0.000000
vn 1.000000 0.000000 0.000000
vn 0.707107 -0.707107 0.000000
vn 0.000000 -1.000000 0.000000
vn 0.000000 -1.000000 0.000000
vn 0.707107 -0.707107 0.000000
vn 0.000000 -1.000000 0.000000
vn -0.707107 -0.707107 0.000000
vn -0.707107 -0.707107 0.000000
vn 0.000000 -1.000000 0.000000
vn -0.707107 -0.707107 0.000000
vn -1.000000 -0.000000 0.000000
vn -1.000000 -0.000000 0.000000
vn -0.707107 -0.707107 0.000000
vn -1.000000 -0.000000 0.000000
vn -0.707107 0.707107 0.000000
vn -0.707107 0.707107 0.000000
vn -1.000000 -0.000000 0.000000
vn -0.707107 0.707107 0.000000
vn -0.000000 1.000000 0.000000
vn -0.000000 1.000000 0.000000
vn -0.707107 0.707107 0.000000
vn -0.000000 1.000000 0.000000
vn 0.707107 0.707107 0.000000
vn 0.707107 0.707107 0.000000
vn -0.000000 1.000000 0.000000
vn 0.707107 0.707107 0.000000
vn 1.000000 0.000000 0.000000
vn 1.000000 0.000000 0.000000
vn 0.707107 0.707107 0.000000
vn 1.000000 0.000000 0.000000
vn 0.707107 -0.707107 0.000000
vn 0.707107 -0.707107 0.000000
vn 1.000000 0.000000 0.000000
vn 0.707107 -0.707107 0.000000
vn 0.000000 -1.000000 0.000000
vn 0.000000 -1.000000 0.000000
vn 0.707107 -0.707107 0.000000
vn 0.000000 -1.000000 0.000000
vn -0.707107 -0.707107 0.000000
vn -0.707107 -0.707107 0.000000
vn 0.000000 -1.000000 0.000000
vn -0.707107 -0.707107 0.000000
vn -1.000000 -0.000000 0.000000
vn -1.000000 -0.000000 0.000000
vn -0.707107 -0.707107 0.000000
vn -1.000000 -0.000000 0.000000
vn -0.707107 0.707107 0.000000
vn -0.707107 0.707107 0.000000
vn -1.000000 -0.000000 0.000000
vn -0.707107 0.707107 0.000000
vn -0.000000 1.000000 0.000000
vn -0.000000 1.000000 0.000000
vn -0.707107 0.707107 0.000000
vn -0.000000 1.000000 0.000000
vn 0.707107 0.707107 0.000000
vn 0.707107 0.707107 0.000000
vn -0.000000 1.000000 0.000000
vn 0.707107 0.707107 0.000000
vn 1.000000 0.000000 0.000000
vn 1.000000 0.000000 0.000000
vn 0.707107 0.707107 0.000000
vn 1.000000 0.000000 0.000000
vn 0.707107 -0.707107 0.000000
vn 0.707107 -0.707107 0.000000
vn 1.000000 0.000000 0.000000
vn 0.707107 -0.707107 0.000000
vn 0.000000 -1.000000 0.000000
vn 0.000000 -1.000000 0.000000
vn 0.707107 -0.707107 0.000000
vn 0.000000 -1.000000 0.000000
vn -0.707107 -0.707107 0.000000
vn -0.707107 -0.707107 0.000000
vn 0.000000 -1.000000 0.000000
vn -0.707107 -0.707107 0.000000
vn -1.000000 -0.000000 0.000000
vn -1.000000 -0.000000 0.000000
vn -0.707107 -0.707107 0.000000
vn -1.000000 -0.000000 0.000000
vn -0.707107 0.707107 0.000000
vn -0.707107 0.707107 0.000000
vn -1.000000 -0.000000 0.000000
vn -0.707107 0.707107 0.000000
vn -0.000000 1.000000 0.000000
vn -0.000000 1.000000 0.000000
vn -0.707107 0.707107 0.000000
vn -0.000000 1.000000 0.000000
vn 0.707107 0.707107 0.000000
vn 0.707107 0.707107 0.000000
vn -0.000000 1.000000 0.000000
vn 0.707107 0.707107 0.000000
vn 1.000000 0.000000 0.000000
vn 1.000000 0.000000 0.000000
vn 0.707107 0.707107 0.000000
vn 1.000000 0.000000 0.000000
vn 0.707107 -0.707107 0.000000
vn 0.707107 -0.707107 0.000000
vn 1.000000 0.000000 0.000000
vn 0.707107 -0.707107 0.000000
vn 0.000000 -1.000000 0.000000
vn 0.000000 -1.000000 0.000000
vn 0.707107 -0.707107 0.000000
vn 0.000000 -1.000000 0.000000
vn -0.707107 -0.707107 0.000000
vn -0.707107 -0.707107 0.000000
vn 0.000000 -1.000000 0.000000
vn -0.707107 -0.707107 0.000000
vn -1.000000 -0.000000 0.000000
vn -1.000000 -0.000000 0.000000
vn -0.707107 -0.707107 0.000000
vn -1.000000 -0.000000 0.000000
vn -0.707107 0.707107 0.000000
vn -0.707107 0.707107 0.000000
vn -1.000000 -0.000000 0.000000
vn -0.707107 0.707107 0.000000
vn -0.000000 1.000000 0.000000
vn -0.000000 1.000000 0.000000
vn -0.707107 0.707107 0.000000
vn -0.000000 1.000000 0.000000
vn 0.707107 0.707107 0.000000
vn 0.707107 0.707107 0.000000
vn -0.000000 1.000000 0.000000
vn 0.707107 0.707107 0.000000
vn 1.000000 0.000000 0.000000
vn 1.000000 0.000000 0.000000
vn 0.707107 0.707107 0.000000
vn 1.000000 0.000000 0.000000
vn 0.707107 -0.707107 0.000000
vn 0.707107 -0.707107 0.000000
vn 1.000000 0.000000 0.000000
vn 0.707107 -0.707107 0.000000
vn 0.000000 -1.000000 0.000000
vn 0.000000 -1.000000 0.000000
vn 0.707107 -0.707107 0.000000
vn 0.000000 -1.000000 0.000000
vn -0.707107 -0.707107 0.000000
vn -0.707107 -0.707107 0.000000
vn 0.000000 -1.000000 0.000000
vn -0.707107 -0.707107 0.000000
vn -1.000000 -0.000000 0.000000
vn -1.000000 -0.000000 0.000000
vn -0.707107 -0.707107 0.000000
vn -1.000000 -0.000000 0.000000
vn -0.707107 0.707107 0.000000
vn -0.707107 0.707107 0.000000
vn -1.000000 -0.000000 0.000000
vn -0.707107 0.707107 0.000000
vn -0.000000 1.000000 0.000000
vn -0.000000 1.000000 0.000000
vn -0.707107 0.707107 0.000000
vn -0.000000 1.000000 0.000000
vn 0.707107 0.707107 0.000000
vn 0.707107 0.707107 0.000000
vn -0.000000 1.000000 0.000000
vn 0.707107 0.707107 0.000000
vn 1.000000 0.000000 0.000000
vn 1.000000 0.000000 0.000000
vn 0.707107 0.707107 0.000000
vn 1.000000 0.000000 0.000000
vn 0.707107 -0.707107 0.000000
vn 0.707107 -0.707107 0.000000
vn 1.000000 0.000000 0.000000
vn 0.707107 -0.707107 0.000000
vn 0.000000 -1.000000 0.000000
vn 0.000000 -1.000000 0.000000
vn 0.707107 -0.707107 0.000000
vn 0.000000 -1.000000 0.000000
vn -0.707107 -0.707107 0.000000
vn -0.707107 -0.707107 0.000000
vn 0.000000 -1.000000 0.000000
vn -0.707107 -0.707107 0.000000
vn -1.000000 -0.000000 0.000000
vn -1.000000 -0.000000 0.000000
vn -0.707107 -0.707107 0.000000
vn -1.000000 -0.000000 0.000000
vn -0.707107 0.707107 0.000000
vn -0.707107 0.707107 0.000000
vn -1.000000 -0.000000 0.000000
vn -0.707107 0.707107 0.000000
vn -0.000000 1.000000 0.000000
vn -0.000000 1.000000 0.000000
vn -0.707107 0.707107 0.000000
vn -0.000000 1.000000 0.000000
vn 0.707107 0.707107 0.000000
vn 0.707107 0.707107 0.000000
vn -0.000000 1.000000 0.000000
vn 0.707107 0.707107 0.000000
vn 1.000000 0.000000 0.000000
vn 1.000000 0.000000 0.000000
vn 0.707107 0.707107 0.000000
vn 1.000000 0.000000 0.000000
vn 0.707107 -0.707107 0.000000
vn 0.707107 -0.707107 0.000000
vn 1.000000 0.000000 0.000000
vn 0.707107 -0.707107 0.000000
vn 0.000000 -1.000000 0.000000
vn 0.000000 -1.000000 0.000000
vn 0.707107 -0.707107 0.000000
vn 0.000000 -1.000000 0.000000
vn -0.707107 -0.707107 0.000000
vn -0.707107 -0.707107 0.000000
vn 0.000000 -1.000000 0.000000
vn -0.707107 -0.707107 0.000000
vn -1.000000 -0.000000 0.000000
vn -1.000000 -0.000000 0.000000
vn -0.707107 -0.707107 0.000000
vn -1.000000 -0.000000 0.000000
vn -0.707107 0.707107 0.000000
vn -0.707107 0.707107 0.000000
vn -1.000000 -0.000000 0.000000
vn -0.707107 0.707107 0.000000
vn -0.000000 1.000000 0.000000
vn -0.000000 1.000000 0.000000
vn -0.707107 0.707107 0.000000
vn -0.000000 1.000000 0.000000
vn 0.707107 0.707107 0.000000
vn 0.707107 0.707107 0.000000
vn -0.000000 1.000000 0.000000
vn 0.707107 0.707107 0.000000
vn 1.000000 0.000000 0.000000
vn 1.000000 0.000000 0.000000
vn 0.707107 0.707107 0.000000
vn 1.000000 0.000000 0.000000
vn 0.707107 -0.707107 0.000000
vn 0.707107 -0.707107 0.000000
vn 1.000000 0.000000 0.000000
vn 0.707107 -0.707107 0.000000
vn 0.000000 -1.000000 0.000000
vn 0.000000 -1.000000 0.000000
vn 0.707107 -0.707107 0.000000
vn 0.000000 -1.000000 0.000000
vn -0.707107 -0.707107 0.000000
vn -0.707107 -0.707107 0.000000
vn 0.000000 -1.000000 0.000000
vn -0.707107 -0.707107 0.000000
vn -1.000000 -0.000000 0.000000
vn -1.000000 -0.000000 0.000000
vn -0.707107 -0.707107 0.000000
vn -0.991619 -0.000000 0.129195
vn -0.701181 0.701181 0.129195
vn -0.707041 0.707041 0.013635
vn -0.999907 -0.000000 0.013635
vn -0.701181 0.701181 0.129195
vn -0.000000 0.991619 0.129195
vn -0.000000 0.999907 0.013635
vn -0.707041 0.707041 0.013635
vn -0.000000 0.991619 0.129195
vn 0.701181 0.701181 0.129195
vn 0.707041 0.707041 0.013635
vn -0.000000 0.999907 0.013635
vn 0.701181 0.701181 0.129195
vn 0.991619 0.000000 0.129195
vn 0.999907 0.000000 0.013635
vn 0.707041 0.707041 0.013635
vn 0.991619 0.000000 0.129195
vn 0.701181 -0.701181 0.129195
vn 0.707041 -0.707041 0.013635
vn 0.999907 0.000000 0.013635
vn 0.701181 -0.701181 0.129195
vn 0.000000 -0.991619 0.129195
vn 0.000000 -0.999907 0.013635
vn 0.707041 -0.707041 0.013635
vn 0.000000 -0.991619 0.129195
vn -0.701181 -0.701181 0.129195
vn -0.707041 -0.707041 0.013635
vn 0.000000 -0.999907 0.013635
vn -0.701181 -0.701181 0.129195
vn -0.991619 -0.000000 0.129195
vn -0.999907 -0.000000 0.013635
vn -0.707041 -0.707041 0.013635
vn -0.970143 -0.000000 0.242536
vn -0.685994 0.685994 0.242536
vn -0.701181 0.701181 0.129195
vn -0.991619 -0.000000 0.129195
vn -0.685994 0.685994 0.242536
vn -0.000000 0.970143 0.242536
vn -0.000000 0.991619 0.129195
vn -0.701181 0.701181 0.129195
vn -0.000000 0.970143 0.242536
vn 0.685994 0.685994 0.242536
vn 0.701181 0.701181 0.129195
vn -0.000000 0.991619 0.129195
vn 0.685994 0.685994 0.242536
vn 0.970143 0.000000 0.242536
vn 0.991619 0.000000 0.129195
vn 0.701181 0.701181 0.129195
vn 0.970143 0.000000 0.242536
vn 0.685994 -0.685994 0.242536
vn 0.701181 -0.701181 0.129195
vn 0.991619 0.000000 0.129195
vn 0.685994 -0.685994 0.242536
vn 0.000000 -0.970143 0.242536
vn 0.000000 -0.991619 0.129195
vn 0.701181 -0.701181 0.129195
vn 0.000000 -0.970143 0.242536
vn -0.685994 -0.685994 0.242536
vn -0.701181 -0.701181 0.129195
vn 0.000000 -0.991619 0.129195
vn -0.685994 -0.685994 0.242536
vn -0.970143 -0.000000 0.242536
vn -0.991619 -0.000000 0.129195
vn -0.701181 -0.701181 0.129195
vn -0.000000 0.000000 1.000000
vn -0.000000 0.000000 1.000000
vn -0.000000 0.000000 1.000000
vn -0.000000 0.000000 1.000000
vn -0.000000 0.000000 1.000000
vn -0.000000 0.000000 1.000000
vn -0.000000 0.000000 1.000000
vn -0.000000 0.000000 1.000000
vn -0.000000 0.000000 1.000000
vn -0.000000 0.000000 1.000000
vn -0.000000 0.000000 1.000000
vn -0.000000 0.000000 1.000000
vn -0.000000 0.000000 1.000000
vn -0.000000 0.000000 1.000000
vn -0.000000 0.000000 1.000000
vn -0.000000 0.000000 1.000000
vn -0.000000 0.000000 1.000000
vn -0.000000 0.000000 1.000000
vn -0.000000 0.000000 1.000000
vn -0.000000 0.000000 1.000000
vn -0.000000 0.000000 1.000000
vn -0.000000 0.000000 1.000000
vn -0.000000 0.000000 1.000000
vn -0.000000 0.000000 1.000000
vn 1.000000 0.000000 -0.000000
vn 1.000000 0.000000 -0.000000
vn 1.000000 0.000000 -0.000000
vn 1.000000 0.000000 -0.000000
vn -1.000000 -0.000000 0.000000
vn -1.000000 -0.000000 0.000000
vn -1.000000 -0.000000 0.000000
vn -1.000000 -0.000000 0.000000
vn 1.000000 0.000000 0.000000
vn 1.000000 0.000000 0.000000
vn 1.000000 0.000000 0.000000
vn 1.000000 0.000000 0.000000
vn -1.000000 -0.000000 -0.000000
vn -1.000000 -0.000000 -0.000000
vn -1.000000 -0.000000 -0.000000
vn -1.000000 -0.000000 -0.000000
vn 1.000000 0.000000 0.000000
vn 1.000000 0.000000 0.000000
vn 1.000000 0.000000 0.000000
vn 1.000000 0.000000 0.000000
vn -1.000000 -0.000000 -0.000000
vn -1.000000 -0.000000 -0.000000
vn -1.000000 -0.000000 -0.000000
vn -1.000000 -0.000000 -0.000000
vn 1.000000 0.000000 0.000000
vn 1.000000 0.000000 0.000000
vn 1.000000 0.000000 0.000000
vn 1.000000 0.000000 0.000000
vn -1.000000 -0.000000 -0.000000
vn -1.000000 -0.000000 -0.000000
vn -1.000000 -0.000000 -0.000000
vn -1.000000 -0.000000 -0.000000
vn 1.000000 0.000000 -0.000000
vn 1.000000 0.000000 -0.000000
vn 1.000000 0.000000 -0.000000
vn 1.000000 0.000000 -0.000000
vn -1.000000 -0.000000 0.000000
vn -1.000000 -0.000000 0.000000
vn -1.000000 -0.000000 0.000000
vn -1.000000 -0.000000 0.000000
vn 1.000000 0.000000 0.000000
vn 1.000000 0.000000 0.000000
vn 1.000000 0.000000 0.000000
vn 1.000000 0.000000 0.000000
vn -1.000000 -0.000000 -0.000000
vn -1.000000 -0.000000 -0.000000
vn -1.000000 -0.000000 -0.000000
vn -1.000000 -0.000000 -0.000000
vn -0.500000 -0.866025 0.000000
vn -0.500000 -0.866025 0.000000
vn -0.500000 -0.866025 0.000000
vn -0.500000 -0.866025 0.000000
vn 0.500000 0.866025 -0.000000
vn 0.500000 0.866025 -0.000000
vn 0.500000 0.866025 -0.000000
vn 0.500000 0.866025 -0.000000
vn -0.500000 -0.866025 0.000000
vn -0.500000 -0.866025 0.000000
vn -0.500000 -0.866025 0.000000
vn -0.500000 -0.866025 0.000000
vn 0.500000 0.866025 -0.000000
vn 0.500000 0.866025 -0.000000
vn 0.500000 0.866025 -0.000000
vn 0.500000 0.866025 -0.000000
vn -0.500000 -0.866025 0.000000
vn -0.500000 -0.866025 0.000000
vn -0.500000 -0.866025 0.000000
vn -0.500000 -0.866025 0.000000
vn 0.500000 0.866025 -0.000000
vn 0.500000 0.866025 -0.000000
vn 0.500000 0.866025 -0.000000
vn 0.500000 0.866025 -0.000000
vn -0.500000 -0.866025 -0.000000
vn -0.500000 -0.866025 -0.000000
vn -0.500000 -0.866025 -0.000000
vn -0.500000 -0.866025 -0.000000
vn 0.500000 0.866025 0.000000
vn 0.500000 0.866025 0.000000
vn 0.500000 0.866025 0.000000
vn 0.500000 0.866025 0.000000
vn -0.500000 -0.866025 0.000000
vn -0.500000 -0.866025 0.000000
vn -0.500000 -0.866025 0.000000
vn -0.500000 -0.866025 0.000000
vn 0.500000 0.866025 -0.000000
vn 0.500000 0.866025 -0.000000
vn 0.500000 0.866025 -0.000000
vn 0.500000 0.866025 -0.000000
vn -0.500000 -0.866025 -0.000000
vn -0.500000 -0.866025 -0.000000
vn -0.500000 -0.866025 -0.000000
vn -0.500000 -0.866025 -0.000000
vn 0.500000 0.866025 0.000000
vn 0.500000 0.866025 0.000000
vn 0.500000 0.866025 0.000000
vn 0.500000 0.866025 0.000000
vn -0.500000 0.866025 0.000000
vn -0.500000 0.866025 0.000000
vn -0.500000 0.866025 0.000000
vn -0.500000 0.866025 0.000000
vn 0.500000 -0.866025 -0.000000
vn 0.500000 -0.866025 -0.000000
vn 0.500000 -0.866025 -0.000000
vn 0.500000 -0.866025 -0.000000
vn -0.500000 0.866025 0.000000
vn -0.500000 0.866025 0.000000
vn -0.500000 0.866025 0.000000
vn -0.500000 0.866025 0.000000
vn 0.500000 -0.866025 -0.000000
vn 0.500000 -0.866025 -0.000000
vn 0.500000 -0.866025 -0.000000
vn 0.500000 -0.866025 -0.000000
vn -0.500000 0.866025 0.000000
vn -0.500000 0.866025 0.000000
vn -0.500000 0.866025 0.000000
vn -0.500000 0.866025 0.000000
vn 0.500000 -0.866025 -0.000000
vn 0.500000 -0.866025 -0.000000
vn 0.500000 -0.866025 -0.000000
vn 0.500000 -0.866025 -0.000000
vn -0.500000 0.866025 -0.000000
vn -0.500000 0.866025 -0.000000
vn -0.500000 0.866025 -0.000000
vn -0.500000 0.866025 -0.000000
vn 0.500000 -0.866025 0.000000
vn 0.500000 -0.866025 0.000000
vn 0.500000 -0.866025 0.000000
vn 0.500000 -0.866025 0.000000
vn -0.500000 0.866025 0.000000
vn -0.500000 0.866025 0.000000
vn -0.500000 0.866025 0.000000
vn -0.500000 0.866025 0.000000
vn 0.500000 -0.866025 -0.000000
vn 0.500000 -0.866025 -0.000000
vn 0.500000 -0.866025 -0.000000
vn 0.500000 -0.866025 -0.000000
vn -0.500000 0.866025 -0.000000
vn -0.500000 0.866025 -0.000000
vn -0.500000 0.866025 -0.000000
vn -0.500000 0.866025 -0.000000
vn 0.500000 -0.866025 0.000000
vn 0.500000 -0.866025 0.000000
vn 0.500000 -0.866025 0.000000
vn 0.500000 -0.866025 0.000000
usemtl jp_iron__jp_fittings_co
f 5/1/1 6/2/2 2/3/3 1/4/4
f 6/5/5 7/6/6 3/7/7 2/8/8
f 7/9/9 8/10/10 4/11/11 3/12/12
f 8/13/13 5/14/14 1/15/15 4/16/16
f 9/17/17 10/18/18 6/19/19 5/20/20
f 10/21/21 11/22/22 7/23/23 6/24/24
f 11/25/25 12/26/26 8/27/27 7/28/28
f 12/29/29 9/30/30 5/31/31 8/32/32
f 13/33/33 14/34/34 10/35/35 9/36/36
f 14/37/37 15/38/38 11/39/39 10/40/40
f 15/41/41 16/42/42 12/43/43 11/44/44
f 16/45/45 13/46/46 9/47/47 12/48/48
f 17/49/49 18/50/50 14/51/51 13/52/52
f 18/53/53 19/54/54 15/55/55 14/56/56
f 19/57/57 20/58/58 16/59/59 15/60/60
f 20/61/61 17/62/62 13/63/63 16/64/64
f 21/65/65 22/66/66 23/67/67
f 21/68/68 23/69/69 24/70/70
f 21/71/71 24/72/72 25/73/73
f 21/74/74 25/75/75 22/76/76
f 34/77/77 35/78/78 27/79/79 26/80/80
f 35/81/81 36/82/82 28/83/83 27/84/84
f 36/85/85 37/86/86 29/87/87 28/88/88
f 37/89/89 38/90/90 30/91/91 29/92/92
f 38/93/93 39/94/94 31/95/95 30/96/96
f 39/97/97 40/98/98 32/99/99 31/100/100
f 40/101/101 41/102/102 33/103/103 32/104/104
f 41/105/105 34/106/106 26/107/107 33/108/108
usemtl jp_bamboo__jp_ya_co
f 50/109/109 51/110/110 43/111/111 42/112/112
f 51/113/113 52/114/114 44/115/115 43/116/116
f 52/117/117 53/118/118 45/119/119 44/120/120
f 53/121/121 54/122/122 46/123/123 45/124/124
f 54/125/125 55/126/126 47/127/127 46/128/128
f 55/129/129 56/130/130 48/131/131 47/132/132
f 56/133/133 57/134/134 49/135/135 48/136/136
f 57/137/137 50/138/138 42/139/139 49/140/140
f 58/141/141 59/142/142 51/143/143 50/144/144
f 59/145/145 60/146/146 52/147/147 51/148/148
f 60/149/149 61/150/150 53/151/151 52/152/152
f 61/153/153 62/154/154 54/155/155 53/156/156
f 62/157/157 63/158/158 55/159/159 54/160/160
f 63/161/161 64/162/162 56/163/163 55/164/164
f 64/165/165 65/166/166 57/167/167 56/168/168
f 65/169/169 58/170/170 50/171/171 57/172/172
f 66/173/173 67/174/174 59/175/175 58/176/176
f 67/177/177 68/178/178 60/179/179 59/180/180
f 68/181/181 69/182/182 61/183/183 60/184/184
f 69/185/185 70/186/186 62/187/187 61/188/188
f 70/189/189 71/190/190 63/191/191 62/192/192
f 71/193/193 72/194/194 64/195/195 63/196/196
f 72/197/197 73/198/198 65/199/199 64/200/200
f 73/201/201 66/202/202 58/203/203 65/204/204
f 74/205/205 75/206/206 67/207/207 66/208/208
f 75/209/209 76/210/210 68/211/211 67/212/212
f 76/213/213 77/214/214 69/215/215 68/216/216
f 77/217/217 78/218/218 70/219/219 69/220/220
f 78/221/221 79/222/222 71/223/223 70/224/224
f 79/225/225 80/226/226 72/227/227 71/228/228
f 80/229/229 81/230/230 73/231/231 72/232/232
f 81/233/233 74/234/234 66/235/235 73/236/236
f 82/237/237 83/238/238 75/239/239 74/240/240
f 83/241/241 84/242/242 76/243/243 75/244/244
f 84/245/245 85/246/246 77/247/247 76/248/248
f 85/249/249 86/250/250 78/251/251 77/252/252
f 86/253/253 87/254/254 79/255/255 78/256/256
f 87/257/257 88/258/258 80/259/259 79/260/260
f 88/261/261 89/262/262 81/263/263 80/264/264
f 89/265/265 82/266/266 74/267/267 81/268/268
f 90/269/269 91/270/270 83/271/271 82/272/272
f 91/273/273 92/274/274 84/275/275 83/276/276
f 92/277/277 93/278/278 85/279/279 84/280/280
f 93/281/281 94/282/282 86/283/283 85/284/284
f 94/285/285 95/286/286 87/287/287 86/288/288
f 95/289/289 96/290/290 88/291/291 87/292/292
f 96/293/293 97/294/294 89/295/295 88/296/296
f 97/297/297 90/298/298 82/299/299 89/300/300
f 98/301/301 99/302/302 91/303/303 90/304/304
f 99/305/305 100/306/306 92/307/307 91/308/308
f 100/309/309 101/310/310 93/311/311 92/312/312
f 101/313/313 102/314/314 94/315/315 93/316/316
f 102/317/317 103/318/318 95/319/319 94/320/320
f 103/321/321 104/322/322 96/323/323 95/324/324
f 104/325/325 105/326/326 97/327/327 96/328/328
f 105/329/329 98/330/330 90/331/331 97/332/332
f 106/333/333 107/334/334 99/335/335 98/336/336
f 107/337/337 108/338/338 100/339/339 99/340/340
f 108/341/341 109/342/342 101/343/343 100/344/344
f 109/345/345 110/346/346 102/347/347 101/348/348
f 110/349/349 111/350/350 103/351/351 102/352/352
f 111/353/353 112/354/354 104/355/355 103/356/356
f 112/357/357 113/358/358 105/359/359 104/360/360
f 113/361/361 106/362/362 98/363/363 105/364/364
f 114/365/365 115/366/366 107/367/367 106/368/368
f 115/369/369 116/370/370 108/371/371 107/372/372
f 116/373/373 117/374/374 109/375/375 108/376/376
f 117/377/377 118/378/378 110/379/379 109/380/380
f 118/381/381 119/382/382 111/383/383 110/384/384
f 119/385/385 120/386/386 112/387/387 111/388/388
f 120/389/389 121/390/390 113/391/391 112/392/392
f 121/393/393 114/394/394 106/395/395 113/396/396
usemtl jp_iron__jp_fittings_co
f 130/397/397 131/398/398 123/399/399 122/400/400
f 131/401/401 132/402/402 124/403/403 123/404/404
f 132/405/405 133/406/406 125/407/407 124/408/408
f 133/409/409 134/410/410 126/411/411 125/412/412
f 134/413/413 135/414/414 127/415/415 126/416/416
f 135/417/417 136/418/418 128/419/419 127/420/420
f 136/421/421 137/422/422 129/423/423 128/424/424
f 137/425/425 130/426/426 122/427/427 129/428/428
f 138/429/429 139/430/430 131/431/431 130/432/432
f 139/433/433 140/434/434 132/435/435 131/436/436
f 140/437/437 141/438/438 133/439/439 132/440/440
f 141/441/441 142/442/442 134/443/443 133/444/444
f 142/445/445 143/446/446 135/447/447 134/448/448
f 143/449/449 144/450/450 136/451/451 135/452/452
f 144/453/453 145/454/454 137/455/455 136/456/456
f 145/457/457 138/458/458 130/459/459 137/460/460
f 148/461/461 147/462/462 146/463/463
f 149/464/464 148/465/465 146/466/466
f 150/467/467 149/468/468 146/469/469
f 151/470/470 150/471/471 146/472/472
f 152/473/473 151/474/474 146/475/475
f 153/476/476 152/477/477 146/478/478
f 154/479/479 153/480/480 146/481/481
f 147/482/482 154/483/483 146/484/484
usemtl jp_feather__jp_ya_co
f 158/485/485 157/486/486 156/487/487 155/488/488
f 162/489/489 161/490/490 160/491/491 159/492/492
f 166/493/493 165/494/494 164/495/495 163/496/496
f 170/497/497 169/498/498 168/499/499 167/500/500
f 174/501/501 173/502/502 172/503/503 171/504/504
f 178/505/505 177/506/506 176/507/507 175/508/508
f 182/509/509 181/510/510 180/511/511 179/512/512
f 186/513/513 185/514/514 184/515/515 183/516/516
f 190/517/517 189/518/518 188/519/519 187/520/520
f 194/521/521 193/522/522 192/523/523 191/524/524
f 198/525/525 197/526/526 196/527/527 195/528/528
f 202/529/529 201/530/530 200/531/531 199/532/532
f 206/533/533 205/534/534 204/535/535 203/536/536
f 210/537/537 209/538/538 208/539/539 207/540/540
f 214/541/541 213/542/542 212/543/543 211/544/544
f 218/545/545 217/546/546 216/547/547 215/548/548
f 222/549/549 221/550/550 220/551/551 219/552/552
f 226/553/553 225/554/554 224/555/555 223/556/556
f 230/557/557 229/558/558 228/559/559 227/560/560
f 234/561/561 233/562/562 232/563/563 231/564/564
f 238/565/565 237/566/566 236/567/567 235/568/568
f 242/569/569 241/570/570 240/571/571 239/572/572
f 246/573/573 245/574/574 244/575/575 243/576/576
f 250/577/577 249/578/578 248/579/579 247/580/580
f 254/581/581 253/582/582 252/583/583 251/584/584
f 258/585/585 257/586/586 256/587/587 255/588/588
f 262/589/589 261/590/590 260/591/591 259/592/592
f 266/593/593 265/594/594 264/595/595 263/596/596
f 270/597/597 269/598/598 268/599/599 267/600/600
f 274/601/601 273/602/602 272/603/603 271/604/604
f 278/605/605 277/606/606 276/607/607 275/608/608
f 282/609/609 281/610/610 280/611/611 279/612/612
f 286/613/613 285/614/614 284/615/615 283/616/616
f 290/617/617 289/618/618 288/619/619 287/620/620
f 294/621/621 293/622/622 292/623/623 291/624/624
f 298/625/625 297/626/626 296/627/627 295/628/628
